  0
SECTION
  2
HEADER
  9
$ACADVER
  1
AC1018
  9
$ACADMAINTVER
  70
6
  9
$DWGCODEPAGE
  3
ansi_1250
  9
$TITLE
  1
VectorDraw Document
  9
$INSBASE
  10
0
  20
0
  30
0
  9
$EXTMIN
  10
-0.00000002
  20
-0.00000004
  30
0
  9
$EXTMAX
  10
108.00097688
  20
59.99999996
  30
0
  9
$LIMMIN
  10
0
  20
0
  9
$LIMMAX
  10
1
  20
1
  9
$ORTHOMODE
  70
0
  9
$REGENMODE
  70
1
  9
$FILLMODE
  70
1
  9
$QTEXTMODE
  70
0
  9
$MIRRTEXT
  70
1
  9
$LTSCALE
  40
1
  9
$ATTMODE
  70
1
  9
$TEXTSIZE
  40
0.2
  9
$TRACEWID
  40
0.05
  9
$TEXTSTYLE
  7
STANDARD
  9
$CLAYER
  8
front_plates
  9
$CELTYPE
  6
BYLAYER
  9
$CECOLOR
  62
254
  9
$CELTSCALE
  40
1
  9
$DISPSILH
  70
0
  9
$DIMSCALE
  40
1
  9
$DIMASZ
  40
0.18
  9
$DIMEXO
  40
0.05
  9
$DIMRND
  40
0
  9
$DIMDLE
  40
0
  9
$DIMEXE
  40
0.2
  9
$DIMTP
  40
1
  9
$DIMTM
  40
1
  9
$DIMTXT
  40
0.18
  9
$DIMTSZ
  40
0.0
  9
$DIMTOL
  70
0
  9
$DIMLIM
  70
0
  9
$DIMTIH
  70
0
  9
$DIMTOH
  70
1
  9
$DIMSE1
  70
0
  9
$DIMSE2
  70
0
  9
$DIMTAD
  70
0
  9
$DIMZIN
  70
1
  9
$DIMBLK
  1
VDDIM_DEFAULT
  9
$DIMASO
  70
1
  9
$DIMSHO
  70
1
  9
$DIMPOST
  1

  9
$DIMAPOST
  1

  9
$DIMALT
  70
0
  9
$DIMBLK1
  1

  9
$DIMBLK2
  1

  9
$DIMSTYLE
  2
STANDARD
  9
$DIMCLRD
  70
0
  9
$DIMCLRE
  70
0
  9
$DIMCLRT
  70
0
  9
$DIMTFAC
  40
1
  9
$DIMSD1
  70
0
  9
$DIMSD2
  70
0
  9
$DIMTOLJ
  70
1
  9
$DIMTXSTY
  7
STANDARD
  9
$DIMAUNIT
  70
0
  9
$DIMADEC
  70
0
  9
$DIMAZIN
  70
0
  9
$DIMLUNIT
  70
2
  9
$LUNITS
  70
2
  9
$LUPREC
  70
4
  9
$FILLETRAD
  40
0.5
  9
$AUNITS
  70
0
  9
$AUPREC
  70
0
  9
$MENU
  1

  9
$ELEVATION
  40
0
  9
$PELEVATION
  40
0
  9
$THICKNESS
  40
0
  9
$ANGBASE
  50
0
  9
$ANGDIR
  70
0
  9
$PDMODE
  70
0
  9
$PDSIZE
  40
0
  9
$PLINEWID
  40
0
  9
$SPLFRAME
  70
0
  9
$SPLINETYPE
  70
6
  9
$SPLINESEGS
  70
8
  9
$HANDSEED
  5
      2ABF
  9
$SURFTAB1
  70
6
  9
$SURFTAB2
  70
6
  9
$SURFTYPE
  70
6
  9
$SURFU
  70
6
  9
$SURFV
  70
6
  9
$UCSBASE
  2

  9
$UCSNAME
  2

  9
$UCSORG
  10
0
  20
0
  30
0
  9
$UCSXDIR
  10
1
  20
0
  30
0
  9
$UCSYDIR
  10
0
  20
1
  30
0
  9
$UCSORGTOP
  10
0
  20
0
  30
0
  9
$UCSORGBOTTOM
  10
0
  20
0
  30
0
  9
$UCSORGLEFT
  10
0
  20
0
  30
0
  9
$UCSORGRIGHT
  10
0
  20
0
  30
0
  9
$UCSORGFRONT
  10
0
  20
0
  30
0
  9
$UCSORGBACK
  10
0
  20
0
  30
0
  9
$PUCSBASE
  2

  9
$PUCSNAME
  2

  9
$PUCSXDIR
  10
1
  20
0
  30
0
  9
$PUCSYDIR
  10
0
  20
1
  30
0
  9
$PUCSORGTOP
  10
0
  20
0
  30
0
  9
$PUCSORGBOTTOM
  10
0
  20
0
  30
0
  9
$PUCSORGLEFT
  10
0
  20
0
  30
0
  9
$PUCSORGRIGHT
  10
0
  20
0
  30
0
  9
$PUCSORGFRONT
  10
0
  20
0
  30
0
  9
$PUCSORGBACK
  10
0
  20
0
  30
0
  9
$USERI1
  70
0
  9
$USERI2
  70
0
  9
$USERI3
  70
0
  9
$USERI4
  70
0
  9
$USERI5
  70
0
  9
$USERR1
  40
0
  9
$USERR2
  40
0
  9
$USERR3
  40
0
  9
$USERR4
  40
0
  9
$USERR5
  40
0
  9
$TILEMODE
  70
1
  9
$PINSBASE
  10
0
  20
0
  30
0
  9
$LWDISPLAY
  290
0
  9
$INSUNITS
  70
0
  9
$MEASUREMENT
  70
1
  0
ENDSEC
  0
SECTION
  2
CLASSES
  0
CLASS
  1
ACDBDICTIONARYWDFLT
  2
AcDbDictionaryWithDefault
  3
ObjectDBX Classes
  90
0
  91
1
  280
0
  281
0
  0
CLASS
  1
IMAGEDEF
  2
AcDbRasterImageDef
  3
ISM
  90
0
  91
1
  280
0
  281
0
  0
CLASS
  1
IMAGE
  2
AcDbRasterImage
  3
ISM
  90
127
  91
1
  280
0
  281
1
  0
CLASS
  1
IMAGEDEF_REACTOR
  2
AcDbRasterImageDefReactor
  3
ObjectDBX Classes
  90
1
  91
1
  280
0
  281
0
  0
CLASS
  1
ACDBPLACEHOLDER
  2
AcDbPlaceHolder
  3
ObjectDBX Classes
  90
0
  91
1
  280
0
  281
0
  0
CLASS
  1
LAYOUT
  2
AcDbLayout
  3
ObjectDBX Classes
  90
0
  91
1
  280
0
  281
0
  0
ENDSEC
  0
SECTION
  2
TABLES
  0
TABLE
  2
VPORT
  5
2A89
  330
0
  100
AcDbSymbolTable
  70
2
  0
VPORT
  5
2A8A
  330
2A89
  100
AcDbSymbolTableRecord
  100
AcDbViewportTableRecord
  2
*Active
  70
0
  10
0
  20
0
  11
1
  21
1
  12
35.89797739
  22
32.25239394
  13
0
  23
0
  14
1
  24
1
  15
1
  25
1
  16
0
  26
0
  36
1
  17
0
  27
0
  37
0
  40
76.77444057
  41
1
  42
50
  43
0
  44
0
  50
0
  51
0
  71
0
  72
100
  73
1
  74
3
  75
0
  76
0
  77
0
  78
0
  281
0
  65
1
  110
0
  120
0
  130
0
  111
1
  121
0
  131
0
  112
0
  122
1
  132
0
  79
0
  146
0
  0
ENDTAB
  0
TABLE
  2
LTYPE
  5
2A8B
  330
0
  100
AcDbSymbolTable
  70
33
  0
LTYPE
  5
1F
  330
2A8B
  100
AcDbSymbolTableRecord
  100
AcDbLinetypeTableRecord
  2
BYBLOCK
  70
0
  3
BYBLOCK________________________________________
  72
65
  73
0
  40
0
  0
LTYPE
  5
20
  330
2A8B
  100
AcDbSymbolTableRecord
  100
AcDbLinetypeTableRecord
  2
BYLAYER
  70
0
  3
BYLAYER________________________________________
  72
65
  73
0
  40
0
  0
LTYPE
  5
A
  330
2A8B
  100
AcDbSymbolTableRecord
  100
AcDbLinetypeTableRecord
  2
CONTINUOUS
  70
0
  3
Solid line
  72
65
  73
0
  40
0
  0
LTYPE
  5
2F2
  330
2A8B
  100
AcDbSymbolTableRecord
  100
AcDbLinetypeTableRecord
  2
CENTER
  70
0
  3
Center ____ _ ____ _ ____ _ ____ _ ____ _ ____
  72
65
  73
4
  40
2
  49
1.25
  74
0
  49
-0.25
  74
0
  49
0.25
  74
0
  49
-0.25
  74
0
  0
LTYPE
  5
2F3
  330
2A8B
  100
AcDbSymbolTableRecord
  100
AcDbLinetypeTableRecord
  2
DASHDOT
  70
0
  3
Dashdot __ . __ . __ . __ . __ . __ . __ . __
  72
65
  73
4
  40
1
  49
0.5
  74
0
  49
-0.25
  74
0
  49
0
  74
0
  49
-0.25
  74
0
  0
LTYPE
  5
2F4
  330
2A8B
  100
AcDbSymbolTableRecord
  100
AcDbLinetypeTableRecord
  2
DASHED
  70
0
  3
Dashed __ __ __ __ __ __ __ __ __ __ __ __ __ _
  72
65
  73
2
  40
0.75
  49
0.5
  74
0
  49
-0.25
  74
0
  0
LTYPE
  5
2F5
  330
2A8B
  100
AcDbSymbolTableRecord
  100
AcDbLinetypeTableRecord
  2
HIDDEN
  70
0
  3
Hidden __ __ __ __ __ __ __ __ __ __ __ __ __ __
  72
65
  73
2
  40
0.375
  49
0.25
  74
0
  49
-0.125
  74
0
  0
LTYPE
  5
2F6
  330
2A8B
  100
AcDbSymbolTableRecord
  100
AcDbLinetypeTableRecord
  2
HIDDEN2
  70
0
  3
Hidden2 _ _ _ _ _ _ _ _ _ _ _ _ _ _ _ _ _ 
  72
65
  73
2
  40
0.1875
  49
0.125
  74
0
  49
-0.0625
  74
0
  0
LTYPE
  5
2F7
  330
2A8B
  100
AcDbSymbolTableRecord
  100
AcDbLinetypeTableRecord
  2
BORDER
  70
0
  3
Border __ __ . __ __ . __ __ . __ __ . __ __ .
  72
65
  73
6
  40
1.75
  49
0.5
  74
0
  49
-0.25
  74
0
  49
0.5
  74
0
  49
-0.25
  74
0
  49
0
  74
0
  49
-0.25
  74
0
  0
LTYPE
  5
2F8
  330
2A8B
  100
AcDbSymbolTableRecord
  100
AcDbLinetypeTableRecord
  2
BORDER2
  70
0
  3
Border2 __.__.__.__.__.__.__.__.__.__.__.
  72
65
  73
6
  40
0.875
  49
0.25
  74
0
  49
-0.125
  74
0
  49
0.25
  74
0
  49
-0.125
  74
0
  49
0
  74
0
  49
-0.125
  74
0
  0
LTYPE
  5
2F9
  330
2A8B
  100
AcDbSymbolTableRecord
  100
AcDbLinetypeTableRecord
  2
BORDERX2
  70
0
  3
Borderx2  ____  ____  .  ____  ____  .  ___
  72
65
  73
6
  40
3.5
  49
1
  74
0
  49
-0.5
  74
0
  49
1
  74
0
  49
-0.5
  74
0
  49
0
  74
0
  49
-0.5
  74
0
  0
LTYPE
  5
2FA
  330
2A8B
  100
AcDbSymbolTableRecord
  100
AcDbLinetypeTableRecord
  2
CENTER2
  70
0
  3
Center2  ___ _ ___ _ ___ _ ___ _ ___ _ ___
  72
65
  73
4
  40
1.125
  49
0.75
  74
0
  49
-0.125
  74
0
  49
0.125
  74
0
  49
-0.125
  74
0
  0
LTYPE
  5
2FB
  330
2A8B
  100
AcDbSymbolTableRecord
  100
AcDbLinetypeTableRecord
  2
CENTERX2
  70
0
  3
Centerx2  ________  __  ________  __  _____
  72
65
  73
4
  40
4
  49
2.5
  74
0
  49
-0.5
  74
0
  49
0.5
  74
0
  49
-0.5
  74
0
  0
LTYPE
  5
2FC
  330
2A8B
  100
AcDbSymbolTableRecord
  100
AcDbLinetypeTableRecord
  2
DASHDOT2
  70
0
  3
Dashdot2  _._._._._._._._._._._._._._._.
  72
65
  73
4
  40
0.5
  49
0.25
  74
0
  49
-0.125
  74
0
  49
0
  74
0
  49
-0.125
  74
0
  0
LTYPE
  5
2FD
  330
2A8B
  100
AcDbSymbolTableRecord
  100
AcDbLinetypeTableRecord
  2
DASHDOTX2
  70
0
  3
Dashdotx2 ____  .  ____  .  ____  .  ___
  72
65
  73
4
  40
2
  49
1
  74
0
  49
-0.5
  74
0
  49
0
  74
0
  49
-0.5
  74
0
  0
LTYPE
  5
2FE
  330
2A8B
  100
AcDbSymbolTableRecord
  100
AcDbLinetypeTableRecord
  2
DASHED2
  70
0
  3
Dashed2 _ _ _ _ _ _ _ _ _ _ _ _ _ _ _ _ _ 
  72
65
  73
2
  40
0.375
  49
0.25
  74
0
  49
-0.125
  74
0
  0
LTYPE
  5
2FF
  330
2A8B
  100
AcDbSymbolTableRecord
  100
AcDbLinetypeTableRecord
  2
DASHEDX2
  70
0
  3
Dashedx2 ____  ____  ____  ____  ____  ___
  72
65
  73
2
  40
1.5
  49
1
  74
0
  49
-0.5
  74
0
  0
LTYPE
  5
300
  330
2A8B
  100
AcDbSymbolTableRecord
  100
AcDbLinetypeTableRecord
  2
DIVIDE
  70
0
  3
Divide ____ . . ____ . . ____ . . ____ . . ____
  72
65
  73
6
  40
1.25
  49
0.5
  74
0
  49
-0.25
  74
0
  49
0
  74
0
  49
-0.25
  74
0
  49
0
  74
0
  49
-0.25
  74
0
  0
LTYPE
  5
301
  330
2A8B
  100
AcDbSymbolTableRecord
  100
AcDbLinetypeTableRecord
  2
DIVIDE2
  70
0
  3
Divide2 __..__..__..__..__..__..__..__.._
  72
65
  73
6
  40
0.625
  49
0.25
  74
0
  49
-0.125
  74
0
  49
0
  74
0
  49
-0.125
  74
0
  49
0
  74
0
  49
-0.125
  74
0
  0
LTYPE
  5
302
  330
2A8B
  100
AcDbSymbolTableRecord
  100
AcDbLinetypeTableRecord
  2
DIVIDEX2
  70
0
  3
Dividex2 ________  .  .  ________  .  .  _
  72
65
  73
6
  40
2.5
  49
1
  74
0
  49
-0.5
  74
0
  49
0
  74
0
  49
-0.5
  74
0
  49
0
  74
0
  49
-0.5
  74
0
  0
LTYPE
  5
303
  330
2A8B
  100
AcDbSymbolTableRecord
  100
AcDbLinetypeTableRecord
  2
DOT
  70
0
  3
Dot . . . . . . . . . . . . . . . . . . . . . . . .
  72
65
  73
2
  40
0.25
  49
0
  74
0
  49
-0.25
  74
0
  0
LTYPE
  5
304
  330
2A8B
  100
AcDbSymbolTableRecord
  100
AcDbLinetypeTableRecord
  2
DOT2
  70
0
  3
Dot2 ........................................
  72
65
  73
2
  40
0.125
  49
0
  74
0
  49
-0.125
  74
0
  0
LTYPE
  5
305
  330
2A8B
  100
AcDbSymbolTableRecord
  100
AcDbLinetypeTableRecord
  2
DOTX2
  70
0
  3
Dotx2 .  .  .  .  .  .  .  .  .  .  .  .  .  .
  72
65
  73
2
  40
0.5
  49
0
  74
0
  49
-0.5
  74
0
  0
LTYPE
  5
306
  330
2A8B
  100
AcDbSymbolTableRecord
  100
AcDbLinetypeTableRecord
  2
HIDDENX2
  70
0
  3
Hiddenx2 ____ ____ ____ ____ ____ ____ ____ 
  72
65
  73
2
  40
0.75
  49
0.5
  74
0
  49
-0.25
  74
0
  0
LTYPE
  5
307
  330
2A8B
  100
AcDbSymbolTableRecord
  100
AcDbLinetypeTableRecord
  2
PHANTOM
  70
0
  3
Phantom ______  __  __  ______  __  __  ______ 
  72
65
  73
6
  40
2.5
  49
1.25
  74
0
  49
-0.25
  74
0
  49
0.25
  74
0
  49
-0.25
  74
0
  49
0.25
  74
0
  49
-0.25
  74
0
  0
LTYPE
  5
308
  330
2A8B
  100
AcDbSymbolTableRecord
  100
AcDbLinetypeTableRecord
  2
PHANTOM2
  70
0
  3
Phantom2 ___ _ _ ___ _ _ ___ _ _ ___ _ _
  72
65
  73
6
  40
1.25
  49
0.625
  74
0
  49
-0.125
  74
0
  49
0.125
  74
0
  49
-0.125
  74
0
  49
0.125
  74
0
  49
-0.125
  74
0
  0
LTYPE
  5
309
  330
2A8B
  100
AcDbSymbolTableRecord
  100
AcDbLinetypeTableRecord
  2
PHANTOMX2
  70
0
  3
Phantomx2 ____________    ____    ____   _
  72
65
  73
6
  40
5
  49
2.5
  74
0
  49
-0.5
  74
0
  49
0.5
  74
0
  49
-0.5
  74
0
  49
0.5
  74
0
  49
-0.5
  74
0
  0
LTYPE
  5
30A
  330
2A8B
  100
AcDbSymbolTableRecord
  100
AcDbLinetypeTableRecord
  2
DASHED0
  70
0
  3
Dashed0 __ __ __ __ __ __ __ __ __ __ __ __ __ _
  72
65
  73
2
  40
1
  49
0.5
  74
0
  49
-0.5
  74
0
  0
LTYPE
  5
30B
  330
2A8B
  100
AcDbSymbolTableRecord
  100
AcDbLinetypeTableRecord
  2
DOT0
  70
0
  3
Dot0 ........................................
  72
65
  73
8
  40
1
  49
0
  74
0
  49
-0.25
  74
0
  49
0
  74
0
  49
-0.25
  74
0
  49
0
  74
0
  49
-0.25
  74
0
  49
0
  74
0
  49
-0.25
  74
0
  0
LTYPE
  5
30C
  330
2A8B
  100
AcDbSymbolTableRecord
  100
AcDbLinetypeTableRecord
  2
DASHDOT0
  70
0
  3
Dashdot __ . __ . __ . __ . __ . __ . __ . __
  72
65
  73
4
  40
1
  49
0.4
  74
0
  49
-0.3
  74
0
  49
0
  74
0
  49
-0.3
  74
0
  0
LTYPE
  5
30D
  330
2A8B
  100
AcDbSymbolTableRecord
  100
AcDbLinetypeTableRecord
  2
DASHDOTDOT0
  70
0
  3
Dashdot __ . . __ . . __ . . __ . . __ . . __ . . __ . . __
  72
65
  73
6
  40
1
  49
0.3
  74
0
  49
-0.23
  74
0
  49
0
  74
0
  49
-0.24
  74
0
  49
0
  74
0
  49
-0.23
  74
0
  0
LTYPE
  5
30E
  330
2A8B
  100
AcDbSymbolTableRecord
  100
AcDbLinetypeTableRecord
  2
INVISIBLE
  70
0
  3
Invisible(                        )
  72
65
  73
2
  40
2
  49
-1
  74
0
  49
-1
  74
0
  0
ENDTAB
  0
TABLE
  2
LAYER
  5
2A8D
  330
0
  100
AcDbSymbolTable
  70
8
  0
LAYER
  5
6
  330
2A8D
  100
AcDbSymbolTableRecord
  100
AcDbLayerTableRecord
  2
0
  70
0
  62
7
  6
Continuous
  370
-3
  390
2A8C
  0
LAYER
  5
A7
  330
2A8D
  100
AcDbSymbolTableRecord
  100
AcDbLayerTableRecord
  2
door
  70
0
  62
7
  6
Continuous
  370
-3
  390
2A8C
  1001
AcAecLayerStandard
  1000

  1000

  0
LAYER
  5
A9
  330
2A8D
  100
AcDbSymbolTableRecord
  100
AcDbLayerTableRecord
  2
device_rail
  70
0
  62
7
  6
Continuous
  370
-3
  390
2A8C
  1001
AcAecLayerStandard
  1000

  1000

  0
LAYER
  5
AA
  330
2A8D
  100
AcDbSymbolTableRecord
  100
AcDbLayerTableRecord
  2
devices
  70
0
  62
7
  6
Continuous
  370
-3
  390
2A8C
  1001
AcAecLayerStandard
  1000

  1000

  0
LAYER
  5
AB
  330
2A8D
  100
AcDbSymbolTableRecord
  100
AcDbLayerTableRecord
  2
rear_wall
  70
0
  62
7
  6
Continuous
  370
-3
  390
2A8C
  1001
AcAecLayerStandard
  1000

  1000

  0
LAYER
  5
AC
  330
2A8D
  100
AcDbSymbolTableRecord
  100
AcDbLayerTableRecord
  2
front_plates
  70
0
  62
7
  6
Continuous
  370
-3
  390
2A8C
  1001
AcAecLayerStandard
  1000

  1000

  0
LAYER
  5
1EBD
  330
2A8D
  100
AcDbSymbolTableRecord
  100
AcDbLayerTableRecord
  2
Defpoints
  70
0
  62
7
  6
Continuous
  290
0
  370
-3
  390
2A8C
  0
LAYER
  5
29B8
  330
2A8D
  100
AcDbSymbolTableRecord
  100
AcDbLayerTableRecord
  2
BUSBAR
  70
0
  62
7
  6
Continuous
  370
-3
  390
2A8C
  0
ENDTAB
  0
TABLE
  2
STYLE
  5
2A8E
  330
0
  100
AcDbSymbolTable
  70
1
  0
STYLE
  5
1C
  330
2A8E
  100
AcDbSymbolTableRecord
  100
AcDbTextStyleTableRecord
  2
STANDARD
  70
0
  40
0
  41
1
  50
0
  71
0
  42
0.2
  3
txt.shx
  4

  1001
ACAD
  1000
txt.shx
  1071
0
  0
ENDTAB
  0
TABLE
  2
VIEW
  5
2A8F
  330
0
  100
AcDbSymbolTable
  70
0
  0
ENDTAB
  0
TABLE
  2
UCS
  5
2A90
  330
0
  100
AcDbSymbolTable
  70
0
  0
ENDTAB
  0
TABLE
  2
APPID
  5
2A91
  330
0
  100
AcDbSymbolTable
  70
13
  0
APPID
  5
2A92
  330
2A91
  100
AcDbSymbolTableRecord
  100
AcDbRegAppTableRecord
  2
VDEXTRAPARAM
  70
0
  0
APPID
  5
2A93
  330
2A91
  100
AcDbSymbolTableRecord
  100
AcDbRegAppTableRecord
  2
VD_TEMPHATCH
  70
0
  0
APPID
  5
2A94
  330
2A91
  100
AcDbSymbolTableRecord
  100
AcDbRegAppTableRecord
  2
ACAD
  70
0
  0
APPID
  5
2A95
  330
2A91
  100
AcDbSymbolTableRecord
  100
AcDbRegAppTableRecord
  2
PE_URL
  70
0
  0
APPID
  5
2A96
  330
2A91
  100
AcDbSymbolTableRecord
  100
AcDbRegAppTableRecord
  2
AcAecLayerStandard
  70
0
  0
APPID
  5
2A97
  330
2A91
  100
AcDbSymbolTableRecord
  100
AcDbRegAppTableRecord
  2
AcadAnnotative
  70
0
  0
APPID
  5
2A98
  330
2A91
  100
AcDbSymbolTableRecord
  100
AcDbRegAppTableRecord
  2
ACAD_DSTYLE_DIMJAG
  70
0
  0
APPID
  5
2A99
  330
2A91
  100
AcDbSymbolTableRecord
  100
AcDbRegAppTableRecord
  2
ACAD_DSTYLE_DIMTALN
  70
0
  0
APPID
  5
2A9A
  330
2A91
  100
AcDbSymbolTableRecord
  100
AcDbRegAppTableRecord
  2
VD_EX_PRINTER_DWG_STYLE_SHEET
  70
0
  0
APPID
  5
2A9B
  330
2A91
  100
AcDbSymbolTableRecord
  100
AcDbRegAppTableRecord
  2
VD_EX_PRINTER_SIZEX
  70
0
  0
APPID
  5
2A9C
  330
2A91
  100
AcDbSymbolTableRecord
  100
AcDbRegAppTableRecord
  2
VD_EX_PRINTER_AVSIZEX
  70
0
  0
APPID
  5
2A9D
  330
2A91
  100
AcDbSymbolTableRecord
  100
AcDbRegAppTableRecord
  2
VD_EX_PRINTER_SIZEY
  70
0
  0
APPID
  5
2A9E
  330
2A91
  100
AcDbSymbolTableRecord
  100
AcDbRegAppTableRecord
  2
VD_EX_PRINTER_AVSIZEY
  70
0
  0
ENDTAB
  0
TABLE
  2
BLOCK_RECORD
  5
2A9F
  330
0
  100
AcDbSymbolTable
  70
7
  0
BLOCK_RECORD
  5
2AA0
  330
2A9F
  100
AcDbSymbolTableRecord
  100
AcDbBlockTableRecord
  2
*Model_Space
  340
1D47
  0
BLOCK_RECORD
  5
2AA1
  330
2A9F
  100
AcDbSymbolTableRecord
  100
AcDbBlockTableRecord
  2
*Paper_Space
  340
15
  0
BLOCK_RECORD
  5
2AA2
  330
2A9F
  100
AcDbSymbolTableRecord
  100
AcDbBlockTableRecord
  2
VDDIM_DEFAULT
  340
0
  0
BLOCK_RECORD
  5
2AA3
  330
2A9F
  100
AcDbSymbolTableRecord
  100
AcDbBlockTableRecord
  2
000000
  340
0
  0
BLOCK_RECORD
  5
2AA4
  330
2A9F
  100
AcDbSymbolTableRecord
  100
AcDbBlockTableRecord
  2
A$C404D20D1
  340
0
  0
BLOCK_RECORD
  5
2AA5
  330
2A9F
  100
AcDbSymbolTableRecord
  100
AcDbBlockTableRecord
  2
VDDIM_NONE
  340
0
  0
BLOCK_RECORD
  5
2AA6
  330
2A9F
  100
AcDbSymbolTableRecord
  100
AcDbBlockTableRecord
  2
VD_ANONYM_22DA
  340
0
  0
ENDTAB
  0
TABLE
  2
DIMSTYLE
  5
2AA7
  330
0
  100
AcDbSymbolTable
  70
3
  100
AcDbDimStyleTable
  71
3
  340
2D
  340
29B9
  340
29BA
  0
DIMSTYLE
  105
2D
  330
2AA7
  100
AcDbSymbolTableRecord
  100
AcDbDimStyleTableRecord
  2
STANDARD
  70
0
  41
0.18
  3

  177
0
  42
0.2
  44
0.05
  75
0
  76
0
  40
1
  281
0
  282
0
  275
0
  277
2
  179
0
  71
0
  47
1
  48
1
  78
1
  176
0
  178
0
  140
0.18
  147
0.09
  280
0
  77
1
  73
0
  271
2
  340
1C
  0
DIMSTYLE
  105
29B9
  330
2AA7
  100
AcDbSymbolTableRecord
  100
AcDbDimStyleTableRecord
  2
Opisowy
  70
0
  41
0.18
  3

  177
0
  42
0.05
  44
0.2
  75
0
  76
0
  40
1
  281
0
  282
0
  275
0
  277
2
  179
0
  71
0
  47
1
  48
1
  78
1
  176
0
  178
0
  140
0.18
  147
0.09
  280
0
  77
1
  73
0
  271
2
  340
1C
  1001
AcadAnnotative
  1000
AnnotativeData
  1070
1
  1070
1
  1001
ACAD_DSTYLE_DIMJAG
  1070
388
  1040
1.5
  1001
ACAD_DSTYLE_DIMTALN
  1070
392
  1070
0
  0
DIMSTYLE
  105
29BA
  330
2AA7
  100
AcDbSymbolTableRecord
  100
AcDbDimStyleTableRecord
  2
ISO-25
  70
0
  41
2.5
  3

  177
0
  42
0.625
  44
1.25
  75
0
  76
0
  40
1
  281
0
  282
0
  275
0
  277
2
  179
0
  71
0
  47
1
  48
1
  78
8
  176
0
  178
0
  140
2.5
  147
0.625
  280
0
  77
1
  73
0
  271
2
  340
1C
  0
ENDTAB
  0
ENDSEC
  0
SECTION
  2
BLOCKS
  0
BLOCK
  5
2AA8
  330
2AA0
  100
AcDbEntity
  8
front_plates
  100
AcDbBlockBegin
  2
*Model_Space
  70
0
  71
0
  10
0
  20
0
  30
0
  3
*Model_Space
  1

  0
ENDBLK
  5
2AA9
  330
2AA0
  100
AcDbEntity
  67
1
  8
front_plates
  100
AcDbBlockEnd
  0
BLOCK
  5
2AAA
  330
2AA1
  100
AcDbEntity
  8
front_plates
  100
AcDbBlockBegin
  2
*Paper_Space
  70
0
  71
0
  10
0
  20
0
  30
0
  3
*Paper_Space
  1

  0
ENDBLK
  5
2AAB
  330
2AA1
  100
AcDbEntity
  67
1
  8
front_plates
  100
AcDbBlockEnd
  0
BLOCK
  5
2A84
  330
2AA2
  100
AcDbEntity
  8
0
  100
AcDbBlockBegin
  2
VDDIM_DEFAULT
  70
0
  71
0
  10
0
  20
0
  30
0
  3
VDDIM_DEFAULT
  1

  0
HATCH
  5
34F
  330
2AA2
  100
AcDbEntity
  8
0
  6
Continuous
  62
0
  370
-2
  100
AcDbHatch
  10
0
  20
0
  30
0
  210
0
  220
0
  230
-1
  2
SOLID
  70
1
  71
0
  91
1
  92
2
  72
0
  73
1
  93
3
  10
0
  20
0
  10
1
  20
-0.1665
  10
1
  20
0.1665
  97
0
  75
0
  76
1
  98
1
  10
0
  20
0
  0
ENDBLK
  5
2AAC
  330
2AA2
  100
AcDbEntity
  8
0
  100
AcDbBlockEnd
  0
BLOCK
  5
2A86
  330
2AA3
  100
AcDbEntity
  8
0
  100
AcDbBlockBegin
  2
000000
  70
0
  71
0
  10
0
  20
0
  30
0
  3
000000
  1

  0
ATTDEF
  5
142
  330
2AA3
  100
AcDbEntity
  8
0
  62
0
  100
AcDbText
  10
73.89255246
  20
16.21681536
  30
0
  40
1
  1

  11
0
  21
0
  31
0
  100
AcDbAttributeDefinition
  3
BD
  2
BD
  70
1
  74
0
  0
ATTDEF
  5
143
  330
2AA3
  100
AcDbEntity
  8
0
  62
0
  100
AcDbText
  10
73.89255246
  20
14.22468799
  30
0
  40
1
  1

  11
0
  21
0
  31
0
  100
AcDbAttributeDefinition
  3
NK
  2
NK
  70
1
  74
0
  0
ATTDEF
  5
144
  330
2AA3
  100
AcDbEntity
  8
0
  62
0
  100
AcDbText
  10
73.89255246
  20
12.6245822
  30
0
  40
1
  1

  11
0
  21
0
  31
0
  100
AcDbAttributeDefinition
  3
TYP
  2
TYP
  70
1
  74
0
  0
ATTDEF
  5
145
  330
2AA3
  100
AcDbEntity
  8
0
  62
0
  100
AcDbText
  10
73.89255246
  20
11.08715767
  30
0
  40
1
  1

  11
0
  21
0
  31
0
  100
AcDbAttributeDefinition
  3
PO
  2
PO
  70
1
  74
0
  0
ENDBLK
  5
2AAD
  330
2AA3
  100
AcDbEntity
  8
0
  100
AcDbBlockEnd
  0
BLOCK
  5
2A87
  330
2AA4
  100
AcDbEntity
  8
0
  100
AcDbBlockBegin
  2
A$C404D20D1
  70
0
  71
0
  10
0
  20
0
  30
0
  3
A$C404D20D1
  1

  0
CIRCLE
  5
2BB
  330
2AA4
  100
AcDbEntity
  8
front_plates
  62
18
  100
AcDbCircle
  10
1.49999989
  20
1.50000001
  30
0
  40
1.5
  0
ARC
  5
2BC
  330
2AA4
  100
AcDbEntity
  8
front_plates
  62
18
  100
AcDbCircle
  10
2.42370391
  20
1.26530143
  30
0
  40
1.54248775
  100
AcDbArc
  50
96.4085714
  51
159.74119835
  0
CIRCLE
  5
2BD
  330
2AA4
  100
AcDbEntity
  8
front_plates
  62
18
  100
AcDbCircle
  10
1.49999989
  20
1.50000001
  30
0
  40
0.59758683
  0
ARC
  5
2BE
  330
2AA4
  100
AcDbEntity
  8
front_plates
  62
18
  100
AcDbCircle
  10
0.57609565
  20
1.73518905
  30
0
  40
1.54299751
  100
AcDbArc
  50
276.41392696
  51
339.05849119
  0
SPLINE
  5
2BF
  330
2AA4
  100
AcDbEntity
  8
front_plates
  62
18
  100
AcDbSpline
  70
10
  71
3
  72
10
  73
6
  74
4
  42
0
  43
0
  44
0
  40
0
  40
0
  40
0
  40
0
  40
0.36637717
  40
0.74824357
  40
1.05934619
  40
1.05934619
  40
1.05934619
  40
1.05934619
  41
1
  41
1
  41
1
  41
1
  41
1
  41
1
  10
2.01178283
  20
1.82402475
  30
0
  10
2.02199044
  20
1.94366112
  30
0
  10
2.0428372
  20
2.1879917
  30
0
  10
1.96923819
  20
2.57661235
  30
0
  10
2.16406795
  20
2.72950891
  30
0
  10
2.25153513
  20
2.79815053
  30
0
  11
2.01178283
  21
1.82402475
  31
0
  11
2.02494378
  21
2.19016546
  31
0
  11
2.03810472
  21
2.571805
  31
0
  11
2.25153513
  21
2.79815053
  31
0
  0
SPLINE
  5
2C0
  330
2AA4
  100
AcDbEntity
  8
front_plates
  62
18
  100
AcDbSpline
  70
10
  71
3
  72
10
  73
6
  74
4
  42
0
  43
0
  44
0
  40
0
  40
0
  40
0
  40
0
  40
0.33471112
  40
0.71657751
  40
1.02768012
  40
1.02768012
  40
1.02768012
  40
1.02768012
  41
1
  41
1
  41
1
  41
1
  41
1
  41
1
  10
0.98821695
  20
1.14428682
  30
0
  10
0.97864476
  20
1.03491413
  30
0
  10
0.95815182
  20
0.80075994
  30
0
  10
1.03101299
  20
0.4233112
  30
0
  10
0.83600973
  20
0.27046742
  30
0
  10
0.74846465
  20
0.20184949
  30
0
  11
0.98821695
  21
1.14428682
  31
0
  11
0.975056
  21
0.80983455
  31
0
  11
0.96189505
  21
0.42819502
  31
0
  11
0.74846465
  21
0.20184949
  31
0
  0
ENDBLK
  5
2AAE
  330
2AA4
  100
AcDbEntity
  8
0
  100
AcDbBlockEnd
  0
BLOCK
  5
2A88
  330
2AA5
  100
AcDbEntity
  8
0
  100
AcDbBlockBegin
  2
VDDIM_NONE
  70
0
  71
0
  10
0
  20
0
  30
0
  3
VDDIM_NONE
  1

  0
ENDBLK
  5
2AAF
  330
2AA5
  100
AcDbEntity
  8
0
  100
AcDbBlockEnd
  0
BLOCK
  5
22E5
  330
2AA6
  100
AcDbEntity
  8
0
  100
AcDbBlockBegin
  2
VD_ANONYM_22DA
  70
0
  71
0
  10
0
  20
0
  30
0
  3
VD_ANONYM_22DA
  1

  0
LINE
  5
22E6
  330
2AA6
  100
AcDbEntity
  8
front_plates
  62
0
  370
-2
  100
AcDbLine
  10
-0.05000002
  20
59.99999996
  30
0
  11
-14.87612887
  21
59.99999996
  31
0
  0
LINE
  5
22E7
  330
2AA6
  100
AcDbEntity
  8
front_plates
  62
0
  370
-2
  100
AcDbLine
  10
-0.05000002
  20
-0.00000004
  30
0
  11
-14.87612887
  21
-0.00000004
  31
0
  0
LINE
  5
22E8
  330
2AA6
  100
AcDbEntity
  8
front_plates
  62
0
  370
-2
  100
AcDbLine
  10
-14.67612887
  20
59.81999996
  30
0
  11
-14.67612887
  21
30.55499996
  31
0
  0
LINE
  5
22E9
  330
2AA6
  100
AcDbEntity
  8
front_plates
  62
0
  370
-2
  100
AcDbLine
  10
-14.67612887
  20
0.17999996
  30
0
  11
-14.67612887
  21
29.44499996
  31
0
  0
INSERT
  5
22EA
  330
2AA6
  100
AcDbEntity
  8
front_plates
  62
0
  370
-2
  100
AcDbBlockReference
  2
VDDIM_DEFAULT
  10
-14.67612887
  20
59.99999996
  30
0
  70
1
  71
1
  41
0.18
  42
0.18
  43
0.18
  50
90
  0
SEQEND
  5
2AB0
  330
22EA
  100
AcDbEntity
  8
front_plates
  0
INSERT
  5
22EB
  330
2AA6
  100
AcDbEntity
  8
front_plates
  62
0
  370
-2
  100
AcDbBlockReference
  2
VDDIM_DEFAULT
  10
-14.67612887
  20
-0.00000004
  30
0
  70
1
  71
1
  41
0.18
  42
0.18
  43
0.18
  50
270
  0
SEQEND
  5
2AB1
  330
22EB
  100
AcDbEntity
  8
front_plates
  0
MTEXT
  5
22EC
  330
2AA6
  100
AcDbEntity
  8
front_plates
  62
0
  100
AcDbMText
  10
-14.67612887
  20
29.99999996
  30
0
  40
0.18
  41
0
  71
5
  72
1
  1
\A1;60.0000
  7
STANDARD
  50
90
  42
0
  73
0
  44
1
  0
ENDBLK
  5
2AB2
  330
2AA6
  100
AcDbEntity
  8
0
  100
AcDbBlockEnd
  0
ENDSEC
  0
SECTION
  2
ENTITIES
  0
HATCH
  5
1D56
  330
2AA0
  100
AcDbEntity
  8
front_plates
  62
30
  100
AcDbHatch
  10
0
  20
0
  30
0
  210
0
  220
0
  230
1
  2
SOLID
  70
1
  71
0
  91
1
  92
2
  72
0
  73
1
  93
4
  10
-0.00000002
  20
59.99999996
  10
-0.00000002
  20
-0.00000004
  10
71.99999998
  20
-0.00000004
  10
71.99999998
  20
59.99999996
  97
0
  75
0
  76
1
  98
1
  10
0
  20
0
  0
HATCH
  5
1E64
  330
2AA0
  100
AcDbEntity
  8
front_plates
  62
254
  100
AcDbHatch
  10
0
  20
0
  30
0
  210
0
  220
0
  230
1
  2
SOLID
  70
1
  71
0
  91
4
  92
2
  72
1
  73
1
  93
2
  10
2.81363506
  20
58.43259397
  42
1
  10
1.22077287
  20
58.43259397
  42
1
  97
0
  92
2
  72
1
  73
1
  93
2
  10
70.77922709
  20
58.43259397
  42
1
  10
69.1863649
  20
58.43259397
  42
1
  97
0
  92
2
  72
1
  73
1
  93
2
  10
2.81363506
  20
1.56740595
  42
1
  10
1.22077287
  20
1.56740595
  42
1
  97
0
  92
2
  72
1
  73
1
  93
2
  10
70.77922709
  20
1.56740595
  42
1
  10
69.1863649
  20
1.56740595
  42
1
  97
0
  75
0
  76
1
  98
1
  10
0
  20
0
  0
LWPOLYLINE
  5
174
  330
2AA0
  100
AcDbEntity
  8
front_plates
  62
18
  100
AcDbPolyline
  90
4
  70
1
  43
0
  38
0
  10
-0.00000002
  20
59.99999996
  10
-0.00000002
  20
-0.00000004
  10
71.99999998
  20
-0.00000004
  10
71.99999998
  20
59.99999996
  0
ATTDEF
  5
2E
  330
2AA0
  100
AcDbEntity
  8
0
  100
AcDbText
  10
105.34556468
  20
16.91056512
  30
0
  40
1
  1

  11
0
  21
0
  31
0
  100
AcDbAttributeDefinition
  3
BD
  2
BD
  70
1
  74
0
  0
ATTDEF
  5
2F
  330
2AA0
  100
AcDbEntity
  8
0
  100
AcDbText
  10
105.34556468
  20
14.91843775
  30
0
  40
1
  1

  11
0
  21
0
  31
0
  100
AcDbAttributeDefinition
  3
NK
  2
NK
  70
1
  74
0
  0
ATTDEF
  5
31
  330
2AA0
  100
AcDbEntity
  8
0
  100
AcDbText
  10
105.34556468
  20
11.78090743
  30
0
  40
1
  1

  11
0
  21
0
  31
0
  100
AcDbAttributeDefinition
  3
PO
  2
PO
  70
1
  74
0
  0
ATTDEF
  5
30
  330
2AA0
  100
AcDbEntity
  8
0
  100
AcDbText
  10
105.34556468
  20
13.31833196
  30
0
  40
1
  1

  11
0
  21
0
  31
0
  100
AcDbAttributeDefinition
  3
TYP
  2
TYP
  70
1
  74
0
  0
INSERT
  5
149
  330
2AA0
  100
AcDbEntity
  8
0
  100
AcDbBlockReference
  66
1
  2
000000
  10
0
  20
0
  30
0
  70
1
  71
1
  0
ATTRIB
  5
14A
  330
149
  100
AcDbEntity
  67
1
  8
0
  100
AcDbText
  10
73.89255246
  20
16.21681536
  30
0
  40
1
  1

  11
0
  21
0
  31
0
  100
AcDbAttribute
  2
BD
  70
1
  74
0
  0
ATTRIB
  5
14B
  330
149
  100
AcDbEntity
  67
1
  8
0
  100
AcDbText
  10
73.89255246
  20
14.22468799
  30
0
  40
1
  1

  11
0
  21
0
  31
0
  100
AcDbAttribute
  2
NK
  70
1
  74
0
  0
ATTRIB
  5
14C
  330
149
  100
AcDbEntity
  67
1
  8
0
  100
AcDbText
  10
73.89255246
  20
12.6245822
  30
0
  40
1
  1

  11
0
  21
0
  31
0
  100
AcDbAttribute
  2
TYP
  70
1
  74
0
  0
ATTRIB
  5
14D
  330
149
  100
AcDbEntity
  67
1
  8
0
  100
AcDbText
  10
73.89255246
  20
11.08715767
  30
0
  40
1
  1

  11
0
  21
0
  31
0
  100
AcDbAttribute
  2
PO
  70
1
  74
0
  0
SEQEND
  5
2AB3
  330
149
  100
AcDbEntity
  8
0
  0
CIRCLE
  5
1E03
  330
2AA0
  100
AcDbEntity
  8
front_plates
  100
AcDbCircle
  10
69.982796
  20
58.43259397
  30
0
  40
0.7964311
  0
CIRCLE
  5
1E0C
  330
2AA0
  100
AcDbEntity
  8
front_plates
  100
AcDbCircle
  10
2.01720396
  20
1.56740595
  30
0
  40
0.7964311
  0
CIRCLE
  5
1E0D
  330
2AA0
  100
AcDbEntity
  8
front_plates
  100
AcDbCircle
  10
69.982796
  20
1.56740595
  30
0
  40
0.7964311
  0
CIRCLE
  5
1DD1
  330
2AA0
  100
AcDbEntity
  8
front_plates
  100
AcDbCircle
  10
2.01720396
  20
58.43259397
  30
0
  40
0.7964311
  0
LWPOLYLINE
  5
2A29
  330
2AA0
  100
AcDbEntity
  8
front_plates
  62
9
  100
AcDbPolyline
  90
8
  70
1
  43
0
  38
0
  10
24.14999998
  20
14.99999996
  10
47.84999998
  20
14.99999996
  42
0.41421356
  10
48.84999998
  20
15.99999996
  10
48.84999998
  20
43.99999996
  42
0.41421356
  10
47.84999998
  20
44.99999996
  10
24.14999998
  20
44.99999996
  42
0.41421356
  10
23.14999998
  20
43.99999996
  10
23.14999998
  20
15.99999996
  42
0.41421356
  0
LWPOLYLINE
  5
2A2A
  330
2AA0
  100
AcDbEntity
  8
front_plates
  62
9
  100
AcDbPolyline
  90
8
  70
1
  43
0
  38
0
  10
25.33499998
  20
16.49999996
  10
46.66499998
  20
16.49999996
  42
0.41421356
  10
47.56499998
  20
17.39999996
  10
47.56499998
  20
42.59999996
  42
0.41421356
  10
46.66499998
  20
43.49999996
  10
25.33499998
  20
43.49999996
  42
0.41421356
  10
24.43499998
  20
42.59999996
  10
24.43499998
  20
17.39999996
  42
0.41421356
  0
LWPOLYLINE
  5
2A2B
  330
2AA0
  100
AcDbEntity
  8
front_plates
  62
9
  100
AcDbPolyline
  90
4
  70
1
  43
0
  38
0
  10
25.33499998
  20
42.59999996
  10
30.53548765
  20
42.59999996
  10
30.53548765
  20
41.51747507
  10
25.33499998
  20
41.51747507
  0
LWPOLYLINE
  5
2A2C
  330
2AA0
  100
AcDbEntity
  8
front_plates
  62
9
  100
AcDbPolyline
  90
4
  70
1
  43
0
  38
0
  10
35.26862334
  20
42.79091017
  10
36.73137662
  20
42.79091017
  10
36.73137662
  20
22.65967195
  10
35.26862334
  20
22.65967195
  0
LWPOLYLINE
  5
2A2D
  330
2AA0
  100
AcDbEntity
  8
front_plates
  62
9
  100
AcDbPolyline
  90
6
  43
0
  38
0
  10
35.26862334
  20
41.1820219
  10
35.15872383
  20
41.1820219
  10
35.15872383
  20
42.89267321
  10
46.9074206
  20
42.89267321
  10
46.9074206
  20
41.1820219
  10
36.73137662
  20
41.1820219
  0
LWPOLYLINE
  5
2A2E
  330
2AA0
  100
AcDbEntity
  8
front_plates
  62
9
  100
AcDbPolyline
  90
4
  70
1
  43
0
  38
0
  10
25.33499998
  20
40.86715732
  10
34.21330457
  20
40.86715732
  10
34.21330457
  20
25.79087322
  10
25.33499998
  20
25.79087322
  0
LWPOLYLINE
  5
2A2F
  330
2AA0
  100
AcDbEntity
  8
front_plates
  62
9
  100
AcDbPolyline
  90
4
  70
1
  43
0
  38
0
  10
25.33499998
  20
24.39241869
  10
34.279787
  20
24.39241869
  10
34.279787
  20
17.54272327
  10
25.33499998
  20
17.54272327
  0
LWPOLYLINE
  5
2A30
  330
2AA0
  100
AcDbEntity
  8
front_plates
  62
9
  100
AcDbPolyline
  90
8
  70
1
  43
0
  38
0
  10
38.38976416
  20
40.37096006
  10
45.92486041
  20
40.37096006
  42
-0.41421356
  10
46.92486041
  20
39.37096006
  10
46.92486041
  20
27.65285745
  42
-0.41421356
  10
45.92486041
  20
26.65285745
  10
38.38976416
  20
26.65285745
  42
-0.41421356
  10
37.38976416
  20
27.65285745
  10
37.38976416
  20
39.37096006
  42
-0.41421356
  0
LWPOLYLINE
  5
2A31
  330
2AA0
  100
AcDbEntity
  8
front_plates
  62
9
  100
AcDbPolyline
  90
4
  70
1
  43
0
  38
0
  10
38.52983017
  20
39.1803323
  10
41.48363707
  20
39.1803323
  10
41.48363707
  20
37.83440513
  10
38.52983017
  20
37.83440513
  0
LWPOLYLINE
  5
2A32
  330
2AA0
  100
AcDbEntity
  8
front_plates
  62
9
  100
AcDbPolyline
  90
4
  70
1
  43
0
  38
0
  10
38.52983017
  20
34.88371891
  10
41.58727944
  20
34.88371891
  10
41.58727944
  20
32.34716411
  10
38.52983017
  20
32.34716411
  0
LWPOLYLINE
  5
2A33
  330
2AA0
  100
AcDbEntity
  8
front_plates
  62
9
  100
AcDbPolyline
  90
4
  70
1
  43
0
  38
0
  10
45.7847944
  20
39.1803323
  10
42.83098749
  20
39.1803323
  10
42.83098749
  20
37.83440513
  10
45.7847944
  20
37.83440513
  0
LWPOLYLINE
  5
2A34
  330
2AA0
  100
AcDbEntity
  8
front_plates
  62
9
  100
AcDbPolyline
  90
4
  70
1
  43
0
  38
0
  10
45.7847944
  20
34.88371891
  10
42.72734513
  20
34.88371891
  10
42.72734513
  20
32.34716411
  10
45.7847944
  20
32.34716411
  0
MTEXT
  5
2A35
  330
2AA0
  100
AcDbEntity
  8
front_plates
  62
9
  100
AcDbMText
  10
39.39934103
  20
34.6942945
  30
0
  40
2
  41
1.31995643
  71
1
  72
1
  1
0
  7
STANDARD
  50
0
  42
1.31995643
  73
0
  44
1
  0
MTEXT
  5
2A36
  330
2AA0
  100
AcDbEntity
  8
front_plates
  62
9
  100
AcDbMText
  10
43.78499083
  20
34.65311662
  30
0
  40
2
  41
0.74555965
  71
1
  72
1
  1
1
  7
STANDARD
  50
0
  42
0.74555965
  73
0
  44
1
  0
LWPOLYLINE
  5
2A37
  330
2AA0
  100
AcDbEntity
  8
front_plates
  62
9
  100
AcDbPolyline
  90
4
  70
1
  43
0
  38
0
  10
44.4517388
  20
26.00878406
  10
46.53901626
  20
26.00878406
  10
46.53901626
  20
25.04644296
  10
44.4517388
  20
25.04644296
  0
LWPOLYLINE
  5
2A38
  330
2AA0
  100
AcDbEntity
  8
front_plates
  62
9
  100
AcDbPolyline
  90
4
  70
1
  43
0
  38
0
  10
38.4367039
  20
20.08635604
  10
46.66499998
  20
20.08635604
  10
46.66499998
  20
17.39999996
  10
38.4367039
  20
17.39999996
  0
LWPOLYLINE
  5
2A39
  330
2AA0
  100
AcDbEntity
  8
front_plates
  62
9
  100
AcDbPolyline
  90
4
  70
1
  43
0
  38
0
  10
38.95246766
  20
19.87666717
  10
41.85860303
  20
19.87666717
  10
41.85860303
  20
17.65642729
  10
38.95246766
  20
17.65642729
  0
VIEWPORT
  5
2AB4
  330
2AA1
  100
AcDbEntity
  67
1
  8
0
  100
AcDbViewport
  10
105.029
  20
148.463
  30
0
  40
24.97
  41
311.7723
  68
1
  69
1
  12
105.029
  22
148.463
  13
0
  23
0
  14
1
  24
1
  15
1
  25
1
  16
0
  26
0
  36
1
  17
0
  27
0
  37
0
  42
50
  43
0
  44
0
  45
311.7723
  50
0
  51
0
  72
1000
  90
32800
  1

  281
0
  71
1
  74
0
  110
0
  120
0
  130
0
  111
1
  121
0
  131
0
  112
0
  122
1
  132
0
  79
0
  146
0
  0
ENDSEC
  0
SECTION
  2
OBJECTS
  0
DICTIONARY
  5
2AB5
  330
0
  100
AcDbDictionary
  281
1
  3
ACAD_GROUP
  350
2AB6
  3
ACAD_LAYOUT
  350
2AB7
  3
ACAD_MLINESTYLE
  350
2AB8
  3
ACAD_PLOTSETTINGS
  350
2AB9
  3
ACAD_PLOTSTYLENAME
  350
2ABA
  3
VECTORDRAW_OBJECTS
  350
2ABB
  3
DWGPROPS
  350
2ABC
  0
DICTIONARY
  5
2AB6
  102
{ACAD_REACTORS
  330
2AB5
  102
}
  330
2AB5
  100
AcDbDictionary
  281
1
  0
DICTIONARY
  5
2AB7
  102
{ACAD_REACTORS
  330
2AB5
  102
}
  330
2AB5
  100
AcDbDictionary
  281
1
  3
Layout1
  350
15
  3
Model
  350
1D47
  0
DICTIONARY
  5
2AB8
  102
{ACAD_REACTORS
  330
2AB5
  102
}
  330
2AB5
  100
AcDbDictionary
  281
1
  3
Standard
  350
2ABD
  0
DICTIONARY
  5
2AB9
  102
{ACAD_REACTORS
  330
2AB5
  102
}
  330
2AB5
  100
AcDbDictionary
  281
1
  0
ACDBDICTIONARYWDFLT
  5
2ABA
  102
{ACAD_REACTORS
  330
2AB5
  102
}
  330
2AB5
  100
AcDbDictionary
  281
1
  3
Normal
  350
2A8C
  100
AcDbDictionaryWithDefault
  340
2A8C
  0
DICTIONARY
  5
2ABB
  102
{ACAD_REACTORS
  330
2AB5
  102
}
  330
2AB5
  100
AcDbDictionary
  281
1
  3
SERIALNO
  350
2ABE
  0
LAYOUT
  5
15
  102
{ACAD_REACTORS
  330
2AB7
  102
}
  330
2AB7
  100
AcDbPlotSettings
  1

  2
EPSON Stylus COLOR 440
  4

  6

  40
0
  41
0
  42
0
  43
0
  44
210.058
  45
296.926
  46
0
  47
0
  48
0
  49
0
  140
420
  141
297
  142
1
  143
1
  70
688
  72
1
  73
0
  74
4
  7

  75
16
  147
1
  148
0
  149
0
  100
AcDbLayout
  1
Layout1
  70
1
  71
1
  10
0
  20
0
  11
12
  21
9
  12
0
  22
0
  32
0
  14
0
  24
0
  34
0
  15
0
  25
0
  35
0
  146
0
  13
0
  23
0
  33
0
  16
1
  26
0
  36
0
  17
0
  27
1
  37
0
  76
0
  330
2AA1
  1001
VD_EX_PRINTER_DWG_STYLE_SHEET
  1000

  1001
VD_EX_PRINTER_SIZEX
  1040
210.058
  1001
VD_EX_PRINTER_AVSIZEX
  1040
210.058
  1001
VD_EX_PRINTER_SIZEY
  1040
296.926
  1001
VD_EX_PRINTER_AVSIZEY
  1040
296.926
  0
LAYOUT
  5
1D47
  102
{ACAD_REACTORS
  330
2AB7
  102
}
  330
2AB7
  100
AcDbPlotSettings
  1
VectorDraw Printer Drawing
  2
EPSON Stylus COLOR 440
  4

  6

  40
0
  41
0
  42
0
  43
0
  44
210.058
  45
296.926
  46
0
  47
0
  48
27.57083219
  49
8.48574361
  140
33.05972244
  141
13.97463386
  142
1
  143
1
  72
1
  73
0
  74
4
  7

  75
0
  147
1
  148
-27.57083219
  149
-8.48574361
  100
AcDbLayout
  1
Model
  70
1
  71
0
  10
1
  20
0
  11
0
  21
1
  12
0
  22
0
  32
0
  14
108.00097688
  24
-0.00000004
  34
-0.00000002
  15
59.99999996
  25
0
  35
0
  146
0
  13
0
  23
0
  33
0
  16
1
  26
0
  36
0
  17
0
  27
1
  37
0
  76
0
  330
2AA0
  1001
VD_EX_PRINTER_DWG_STYLE_SHEET
  1000

  1001
VD_EX_PRINTER_SIZEX
  1040
210.058
  1001
VD_EX_PRINTER_AVSIZEX
  1040
210.058
  1001
VD_EX_PRINTER_SIZEY
  1040
296.926
  1001
VD_EX_PRINTER_AVSIZEY
  1040
296.926
  0
MLINESTYLE
  5
2ABD
  102
{ACAD_REACTORS
  330
2AB8
  102
}
  330
2AB8
  100
AcDbMlineStyle
  2
Standard
  70
0
  3

  62
256
  51
90
  52
90
  71
2
  49
0.5
  62
256
  6
BYLAYER
  49
-0.5
  62
256
  6
BYLAYER
  0
ACDBPLACEHOLDER
  5
2A8C
  102
{ACAD_REACTORS
  330
2ABA
  102
}
  330
2ABA
  0
XRECORD
  5
2ABE
  102
{ACAD_REACTORS
  330
2ABB
  102
}
  330
2ABB
  100
AcDbXrecord
  280
1
  1000
udnjVM6OT3ptXXPNDrqErnGX8
  1070
5
  1070
1
  0
XRECORD
  5
2ABC
  102
{ACAD_REACTORS
  330
2AB5
  102
}
  330
2AB5
  100
AcDbXrecord
  280
1
  1
DWGPROPS COOKIE
  2

  3

  4

  6

  7

  8

  9

  40
0
  41
0
  42
0
  1

  90
0
  0
ENDSEC
  999
Created By VectorDraw :6.1.6017.0
  0
EOF
